# xmcd CD database file
#
# Track frame offsets:
#	150
#	16144
#	36326
#	49154
#	81387
#	103022
#	133218
#	153320
#	177213
#	200153
#	220840
#	248225
#	262141
#	283828
#	314389
#
# Disc length: 4386 seconds
#
# Revision: 1
# Processed by: cddbd v1.5.2PL0 Copyright (c) Steve Scherf et al.
# Submitted via: CDex 1.51
#
DISCID=e411200f
DTITLE=Various Artist - Peter Green Songbook [CD 1)
DYEAR=1995
DGENRE=Blues
TTITLE0=Larry McCray - Black Magic Woman
TTITLE1=Luther Grosvenor - Crying won't bring you back
TTITLE2=Ian Anderson - Man of the world
TTITLE3=Snowy White - Lookin' for somebody
TTITLE4=Southside Johnn - Baby when the sun goes down
TTITLE5=Vince Converse - Leavin' town blues
TTITLE6=Rory Gallagher - Rattlesnake shake
TTITLE7=Harvey Mandel - Ramblin pony
TTITLE8=Arthur Brown - The green manalishi
TTITLE9=Luther Grosvenor - Merry go round
TTITLE10=Dave Peverett - Love that burns
TTITLE11=Kim Simmonds - Stop messin' round
TTITLE12=Jon Paris - Long grey mare
TTITLE13=Rory Gallagher - Showbiz blues
TTITLE14=Clas Yngstrom - The supernatural
EXTD=DDD-Seagull (Norwegen),AAD,95                          \r\nM. Inhoffen in stereoplay 11/95:Musiker wie Harvey Mandel,\r\n Ian Anderson, Southside Johnny oder der kürzlich verstorbene \r\nRory Gallagher erwecken "Black Magic Woman", Man Of The \r\nWo
EXTD=rld" oder den "Leaving Town Blues" wieder zu faszinierendem \r\nLeben, indem sie ihre eigenen Persönlichkeiten mit einbringen." YEAR: 1995
EXTT0=
EXTT1=
EXTT2=
EXTT3=
EXTT4=
EXTT5=
EXTT6=
EXTT7=
EXTT8=
EXTT9=
EXTT10=
EXTT11=
EXTT12=
EXTT13=
EXTT14=
PLAYORDER=
